<?xml version="1.0" encoding="UTF-8" standalone="no"?><!DOCTYPE svg PUBLIC "-//W3C//DTD SVG 1.1//EN" "http://www.w3.org/Graphics/SVG/1.1/DTD/svg11.dtd"><svg width="100%" height="100%" viewBox="0 0 3125 532" version="1.1" xmlns="http://www.w3.org/2000/svg" xmlns:xlink="http://www.w3.org/1999/xlink" xml:space="preserve" xmlns:serif="http://www.serif.com/" style="fill-rule:evenodd;clip-rule:evenodd;stroke-linejoin:round;stroke-miterlimit:2;"><g><path d="M314.435,522.234l-0,-78.37l-225.979,0l0,-407.106l-88.456,-0l0,485.476l314.435,0Z" style="fill:#f60;fill-rule:nonzero;"/><path d="M718.017,374.51l0,-31.902c0,-103.337 -58.049,-190.03 -169.311,-190.03c-102.277,0 -183.132,82.531 -183.132,188.643c-0,106.111 77.399,188.642 186.588,188.642c58.74,-0 99.513,-14.564 143.741,-51.322l-40.081,-58.257c-38.009,26.354 -61.505,33.983 -100.896,33.983c-53.903,0 -90.53,-28.435 -100.896,-79.757l263.987,0Zm-264.678,-62.418c9.675,-54.789 46.993,-85.305 96.058,-85.305c53.904,-0 79.473,41.612 83.619,85.305l-179.677,0Z" style="fill:#f60;fill-rule:nonzero;"/><path d="M848.629,522.234l78.09,-113.047l78.782,113.047l101.587,0l-127.157,-181.707l125.774,-180.32l-100.895,0l-78.091,112.353l-77.399,-112.353l-101.587,0l125.774,180.32l-126.465,181.707l101.587,0Z" style="fill:#f60;fill-rule:nonzero;"/><path d="M1135.42,341.221c0,106.111 79.473,188.642 187.279,188.642c107.806,-0 187.279,-82.531 187.279,-188.642c-0,-106.112 -79.473,-188.643 -187.279,-188.643c-107.806,0 -187.279,82.531 -187.279,188.643Zm187.279,109.579c-58.74,-0 -100.204,-47.161 -100.204,-109.579c-0,-63.112 41.464,-109.579 100.204,-109.579c58.741,-0 99.514,46.467 99.514,109.579c-0,62.418 -40.773,109.579 -99.514,109.579Z" style="fill:#f60;fill-rule:nonzero;"/><path d="M1946.04,384.914c-38.7,43.692 -80.855,65.192 -131.994,65.192c-96.749,0 -158.945,-79.757 -158.945,-170.61c-0,-90.854 62.196,-170.611 158.945,-170.611c51.139,0 91.912,21.5 130.611,66.58l59.432,-65.886c-49.757,-52.709 -121.627,-81.837 -190.043,-81.837c-139.595,-0 -248.093,110.272 -248.093,251.754c0,141.481 108.498,251.754 248.093,251.754c67.724,-0 144.433,-30.516 189.352,-82.531l-57.358,-63.805Z" style="fill:#f60;fill-rule:nonzero;"/><path d="M2166.49,522.234l-0,-196.271c-0,-56.87 30.406,-92.934 74.635,-92.934c43.537,-0 71.871,26.354 71.871,88.773l-0,200.432l86.383,0l-0,-212.223c-0,-117.901 -57.359,-157.433 -132.685,-157.433c-51.83,0 -85.001,30.516 -100.204,50.629l-0,-203.207l-86.384,-0l0,522.234l86.384,0Z" style="fill:#f60;fill-rule:nonzero;"/><path d="M2737.31,522.234l64.96,0l0,-197.658c0,-117.902 -20.732,-171.998 -154.107,-171.998c-58.741,0 -124.392,11.097 -143.051,17.339l18.659,74.208c29.024,-9.016 73.253,-14.564 109.188,-14.564c69.798,0 82.928,14.564 82.928,84.612c-25.569,-6.936 -52.521,-12.484 -93.294,-12.484c-80.855,-0 -143.742,36.064 -143.742,110.272c0,76.29 60.123,117.902 129.23,117.902c64.96,-0 98.822,-28.435 114.026,-55.483l15.203,47.854Zm-19.35,-142.869c0,43 -24.187,80.451 -89.838,80.451c-36.627,-0 -61.505,-16.645 -61.505,-47.161c-0,-29.822 22.114,-47.854 67.033,-47.854c35.936,-0 61.505,4.855 84.31,11.097l0,3.467Z" style="fill:#f60;fill-rule:nonzero;"/><path d="M3096.67,435.542c-21.423,10.403 -35.935,15.258 -55.976,15.258c-26.952,-0 -39.391,-11.791 -39.391,-50.629l0,-160.9l110.571,-0l-0,-77.677l-110.571,0l0,-78.369l-82.928,-0l0,78.369l-49.065,0l-0,77.677l45.61,-0l-0,160.9c-0,89.467 46.301,129.692 121.628,129.692c22.805,-0 57.358,-4.161 88.456,-24.967l-28.334,-69.354Z" style="fill:#f60;fill-rule:nonzero;"/></g></svg>